<svg width="310" height="262" viewBox="0 0 310 262" fill="none" xmlns="http://www.w3.org/2000/svg">
<g filter="url(#filter0_d_0_1)">
<path d="M25.5 31.0691L32.5 29.5691V35.5691L29.5 36.0691L24.5 38.0691L21.5 40.0691L18.5 43.0691L15.5 47.0691L13.5 52.0691L12.5 56.5691L18.5 108.069V119.069L16.5 123.069L14.5 126.069L17.5 129.069L20.5 132.069L22.5 137.069L28.5 182.069L29.5 189.069L30.5 193.069L33.5 199.069L38 203.569L42.5 206.569L47.5 208.569L56 209.069V214.569H47L43 213.569L38.5 211.569L34 208.569L30 204.569L26 199.569L24.5 194.569L17.5 144.069L16.5 137.569L15 134.069L12.5 132.069L9.5 130.569L5 130.069V124.069L8 123.069C8.83333 122.569 10.5 121.469 10.5 121.069C10.5 120.669 11.8333 119.236 12.5 118.569L13 115.069L6.5 61.5691L7 52.5691L8 49.5691L10 45.0691L12.5 41.0691L16.5 36.5691L20.5 33.5691L25.5 31.0691Z" fill="#A7D8E8"/>
<path d="M25.5 31.0691L32.5 29.5691V35.5691L29.5 36.0691L24.5 38.0691L21.5 40.0691L18.5 43.0691L15.5 47.0691L13.5 52.0691L12.5 56.5691L18.5 108.069V119.069L16.5 123.069L14.5 126.069L17.5 129.069L20.5 132.069L22.5 137.069L28.5 182.069L29.5 189.069L30.5 193.069L33.5 199.069L38 203.569L42.5 206.569L47.5 208.569L56 209.069V214.569H47L43 213.569L38.5 211.569L34 208.569L30 204.569L26 199.569L24.5 194.569L17.5 144.069L16.5 137.569L15 134.069L12.5 132.069L9.5 130.569L5 130.069V124.069L8 123.069C8.83333 122.569 10.5 121.469 10.5 121.069C10.5 120.669 11.8333 119.236 12.5 118.569L13 115.069L6.5 61.5691L7 52.5691L8 49.5691L10 45.0691L12.5 41.0691L16.5 36.5691L20.5 33.5691L25.5 31.0691Z" stroke="#0087B6"/>
</g>
<g filter="url(#filter1_d_0_1)">
<path fill-rule="evenodd" clip-rule="evenodd" d="M81 204.069L38.5 253.069L304.5 218.069L250.5 182.069L81 204.069ZM83.5 210.069L53.5 245.069L287.5 214.069L249.5 188.069L83.5 210.069Z" fill="#A7D8E8"/>
<path d="M38.5 253.069L38.1223 252.741L37.2591 253.737L38.5652 253.565L38.5 253.069ZM81 204.069L80.9356 203.573L80.747 203.598L80.6223 203.741L81 204.069ZM304.5 218.069L304.565 218.565L305.885 218.391L304.777 217.653L304.5 218.069ZM250.5 182.069L250.777 181.653L250.621 181.549L250.436 181.573L250.5 182.069ZM53.5 245.069L53.1204 244.744L52.2694 245.736L53.5657 245.565L53.5 245.069ZM83.5 210.069L83.4343 209.573L83.2448 209.599L83.1204 209.744L83.5 210.069ZM287.5 214.069L287.566 214.565L288.859 214.393L287.782 213.656L287.5 214.069ZM249.5 188.069L249.782 187.656L249.624 187.548L249.434 187.573L249.5 188.069ZM38.8777 253.397L81.3777 204.397L80.6223 203.741L38.1223 252.741L38.8777 253.397ZM304.435 217.573L38.4348 252.573L38.5652 253.565L304.565 218.565L304.435 217.573ZM250.223 182.485L304.223 218.485L304.777 217.653L250.777 181.653L250.223 182.485ZM81.0644 204.565L250.564 182.565L250.436 181.573L80.9356 203.573L81.0644 204.565ZM53.8796 245.394L83.8796 210.394L83.1204 209.744L53.1204 244.744L53.8796 245.394ZM287.434 213.573L53.4343 244.573L53.5657 245.565L287.566 214.565L287.434 213.573ZM249.218 188.482L287.218 214.482L287.782 213.656L249.782 187.656L249.218 188.482ZM83.5657 210.565L249.566 188.565L249.434 187.573L83.4343 209.573L83.5657 210.565Z" fill="#0087B6"/>
</g>
<g filter="url(#filter2_d_0_1)">
<path fill-rule="evenodd" clip-rule="evenodd" d="M146.5 214.069L131.5 231.069L208.5 221.069L190.5 209.069L146.5 214.069ZM149.5 219.069L146.5 224.069L192.5 218.069L188.5 214.069L149.5 219.069Z" fill="#A7D8E8"/>
<path d="M131.5 231.069L131.125 230.738L130.244 231.736L131.564 231.565L131.5 231.069ZM146.5 214.069L146.444 213.572L146.252 213.594L146.125 213.738L146.5 214.069ZM208.5 221.069L208.564 221.565L209.887 221.393L208.777 220.653L208.5 221.069ZM190.5 209.069L190.777 208.653L190.625 208.552L190.444 208.572L190.5 209.069ZM146.5 224.069L146.071 223.812L145.539 224.699L146.565 224.565L146.5 224.069ZM149.5 219.069L149.436 218.573L149.196 218.604L149.071 218.812L149.5 219.069ZM192.5 218.069L192.565 218.565L193.572 218.434L192.854 217.716L192.5 218.069ZM188.5 214.069L188.854 213.716L188.68 213.542L188.436 213.573L188.5 214.069ZM131.875 231.4L146.875 214.4L146.125 213.738L131.125 230.738L131.875 231.4ZM208.436 220.573L131.436 230.573L131.564 231.565L208.564 221.565L208.436 220.573ZM190.223 209.485L208.223 221.485L208.777 220.653L190.777 208.653L190.223 209.485ZM146.556 214.566L190.556 209.566L190.444 208.572L146.444 213.572L146.556 214.566ZM146.929 224.326L149.929 219.326L149.071 218.812L146.071 223.812L146.929 224.326ZM192.435 217.573L146.435 223.573L146.565 224.565L192.565 218.565L192.435 217.573ZM188.146 214.423L192.146 218.423L192.854 217.716L188.854 213.716L188.146 214.423ZM149.564 219.565L188.564 214.565L188.436 213.573L149.436 218.573L149.564 219.565Z" fill="#0087B6"/>
</g>
<path d="M232.5 156.069L91.5 174.069L92.5 179.069L232.5 161.069V156.069Z" fill="#A7D8E8" stroke="#0087B6"/>
<path d="M217 35.5691L76 53.5691L77 58.5691L217 40.5691V35.5691Z" fill="#A7D8E8" stroke="#0087B6"/>
<g filter="url(#filter3_d_0_1)">
<path d="M42.5 36.0691H46.5V41.0691L43.5 42.0691L37.5 45.0691L32.5 50.0691L29.5 56.0691L28.5 61.0691L34.5 105.069V116.069L32.5 120.069L30.5 123.069L33.5 126.069L36.5 129.069L38.5 134.069L44.5 179.069L45.5 186.069L47.5 190.069L51 194.569L56.5 198.069L60.5 199.569L68 200.069L68.5 205.069H60.5L56.5 204.069L52.5 202.569L48.5 200.069L46.5 198.069L42.5 193.069L39.5 187.569L33.5 141.069L32.5 134.569L31 131.069L28.5 129.069L25.5 127.569L21 127.069V121.069L24 120.069C24.8333 119.569 26.5 118.469 26.5 118.069C26.5 117.669 27.8333 116.236 28.5 115.569L29 112.069L22.5 59.0691L23.5 54.5691L24.5 52.0691L26.5 48.5691L29 45.0691L32.5 41.5691L37.5 38.0691L42.5 36.0691Z" fill="#A7D8E8"/>
<path d="M42.5 36.0691H46.5V41.0691L43.5 42.0691L37.5 45.0691L32.5 50.0691L29.5 56.0691L28.5 61.0691L34.5 105.069V116.069L32.5 120.069L30.5 123.069L33.5 126.069L36.5 129.069L38.5 134.069L44.5 179.069L45.5 186.069L47.5 190.069L51 194.569L56.5 198.069L60.5 199.569L68 200.069L68.5 205.069H60.5L56.5 204.069L52.5 202.569L48.5 200.069L46.5 198.069L42.5 193.069L39.5 187.569L33.5 141.069L32.5 134.569L31 131.069L28.5 129.069L25.5 127.569L21 127.069V121.069L24 120.069C24.8333 119.569 26.5 118.469 26.5 118.069C26.5 117.669 27.8333 116.236 28.5 115.569L29 112.069L22.5 59.0691L23.5 54.5691L24.5 52.0691L26.5 48.5691L29 45.0691L32.5 41.5691L37.5 38.0691L42.5 36.0691Z" stroke="#0087B6"/>
</g>
<g filter="url(#filter4_d_0_1)">
<path d="M284.11 184.5L277.11 186L277.11 180L280.11 179.5L285.11 177.5L288.11 175.5L291.11 172.5L294.11 168.5L296.11 163.5L297.11 159L291.11 107.5L291.11 96.5L293.11 92.5L295.11 89.5L292.11 86.5L289.11 83.5L287.11 78.5L281.11 33.5L280.11 26.5L279.11 22.5L276.11 16.5L271.61 12L267.11 9.00001L262.11 7.00001L253.61 6.50001L253.61 1.00001L262.61 1.00001L266.61 2.00001L271.11 4.00001L275.61 7.00001L279.61 11L283.61 16L285.11 21L292.11 71.5L293.11 78L294.61 81.5L297.11 83.5L300.11 85L304.61 85.5L304.61 91.5L301.61 92.5C300.777 93 299.11 94.1 299.11 94.5C299.11 94.9 297.777 96.3333 297.11 97L296.61 100.5L303.11 154L302.61 163L301.61 166L299.61 170.5L297.11 174.5L293.11 179L289.11 182L284.11 184.5Z" fill="#A7D8E8"/>
<path d="M284.11 184.5L277.11 186L277.11 180L280.11 179.5L285.11 177.5L288.11 175.5L291.11 172.5L294.11 168.5L296.11 163.5L297.11 159L291.11 107.5L291.11 96.5L293.11 92.5L295.11 89.5L292.11 86.5L289.11 83.5L287.11 78.5L281.11 33.5L280.11 26.5L279.11 22.5L276.11 16.5L271.61 12L267.11 9.00001L262.11 7.00001L253.61 6.50001L253.61 1.00001L262.61 1.00001L266.61 2.00001L271.11 4.00001L275.61 7.00001L279.61 11L283.61 16L285.11 21L292.11 71.5L293.11 78L294.61 81.5L297.11 83.5L300.11 85L304.61 85.5L304.61 91.5L301.61 92.5C300.777 93 299.11 94.1 299.11 94.5C299.11 94.9 297.777 96.3333 297.11 97L296.61 100.5L303.11 154L302.61 163L301.61 166L299.61 170.5L297.11 174.5L293.11 179L289.11 182L284.11 184.5Z" stroke="#0087B6"/>
</g>
<g filter="url(#filter5_d_0_1)">
<path d="M267 178.569H263V173.569L266 172.569L272 169.569L277 164.569L280 158.569L281 153.569L275 109.569V98.5691L277 94.5691L279 91.5691L276 88.5691L273 85.5691L271 80.5691L265 35.5691L264 28.5691L262 24.5691L258.5 20.0691L253 16.5691L249 15.0691L241.5 14.5691L241 9.56906H249L253 10.5691L257 12.0691L261 14.5691L263 16.5691L267 21.5691L270 27.0691L276 73.5691L277 80.0691L278.5 83.5691L281 85.5691L284 87.0691L288.5 87.5691V93.5691L285.5 94.5691C284.667 95.0691 283 96.1691 283 96.5691C283 96.9691 281.667 98.4024 281 99.0691L280.5 102.569L287 155.569L286 160.069L285 162.569L283 166.069L280.5 169.569L277 173.069L272 176.569L267 178.569Z" fill="#A7D8E8"/>
<path d="M267 178.569H263V173.569L266 172.569L272 169.569L277 164.569L280 158.569L281 153.569L275 109.569V98.5691L277 94.5691L279 91.5691L276 88.5691L273 85.5691L271 80.5691L265 35.5691L264 28.5691L262 24.5691L258.5 20.0691L253 16.5691L249 15.0691L241.5 14.5691L241 9.56906H249L253 10.5691L257 12.0691L261 14.5691L263 16.5691L267 21.5691L270 27.0691L276 73.5691L277 80.0691L278.5 83.5691L281 85.5691L284 87.0691L288.5 87.5691V93.5691L285.5 94.5691C284.667 95.0691 283 96.1691 283 96.5691C283 96.9691 281.667 98.4024 281 99.0691L280.5 102.569L287 155.569L286 160.069L285 162.569L283 166.069L280.5 169.569L277 173.069L272 176.569L267 178.569Z" stroke="#0087B6"/>
</g>
<path fill-rule="evenodd" clip-rule="evenodd" d="M59.5 41.0691L53.5 43.0691L48.5 46.0691L44.5 50.0691L42.5 53.0691C42 54.2357 40.9 56.6691 40.5 57.0691C40.1 57.4691 39.6667 59.2357 39.5 60.0691V72.0691L44.5 113.069L43.5 116.069L41.5 118.069L38 120.069V125.569L41.5 126.569L45.5 129.069L47.5 133.069L49.5 148.069L52.5 173.069L53.5 178.069L55.5 183.069L58 187.069L62.5 191.069L67.5 194.069L73.5 196.069H82.5L249.5 174.069L255.5 172.069L260 169.069L265.5 164.069L267.5 161.069L269.5 156.069L270.5 152.069V146.069L265.5 109.069V100.069L267.5 97.0691L269.5 96.0691L271.5 95.0691V90.5691L268.5 89.0691L264.5 87.0691L262 84.0691L261.5 78.5691L260.5 70.5691L259.5 64.0691L256.5 40.0691L254.5 34.0691L250.5 28.0691L245.5 23.0691L239.5 20.0691L234.5 19.0691H227.5L59.5 41.0691ZM65.5 45.5691L59.6039 47.0775L55.5 48.5691L51.5 51.0691L49 54.0691C48.2602 54.6821 47 57.0691 46.5 58.0691C46.2622 58.5447 45.657 60.4644 45.5 61.2459V74.0691L50.5 112.569L50.182 115.541L49 118.069L47 120.069V123.569L50.182 126.069L52.0664 127.733L53.5 131.569L55 145.569L58.5 170.069L59.5 177.069L61.5 181.069L64.5 185.069L69.5 188.569L74 190.069L78.4475 190.569L87 190.069L245.5 169.069L252 167.569L256 165.069L260.5 160.569L263 156.569L264 153.069L264.5 149.069L264.058 143.676L259.347 108.976V100.535L260.5 97.0691L262.5 95.0691L262 91.5691L259.5 90.0691L258.405 88.3431L256.5 85.0691L255.578 80.3713L254.636 72.8685L253.694 66.7724L250.5 41.0691L249.5 37.0691L246.5 32.0691L242 28.0691L237 25.5691L230.139 24.5691L223.5 25.0691L65.5 45.5691Z" fill="#A7D8E8"/>
<path d="M53.5 43.0691L53.3419 42.5947L53.2898 42.6121L53.2428 42.6403L53.5 43.0691ZM59.5 41.0691L59.4351 40.5733L59.3875 40.5795L59.3419 40.5947L59.5 41.0691ZM48.5 46.0691L48.2428 45.6403L48.19 45.672L48.1464 45.7155L48.5 46.0691ZM44.5 50.0691L44.1464 49.7155L44.1114 49.7505L44.084 49.7917L44.5 50.0691ZM42.5 53.0691L42.084 52.7917L42.0585 52.8299L42.0404 52.8721L42.5 53.0691ZM39.5 60.0691L39.0097 59.971L39 60.0196V60.0691H39.5ZM39.5 72.0691H39V72.0994L39.0037 72.1296L39.5 72.0691ZM44.5 113.069L44.9743 113.227L45.01 113.12L44.9963 113.009L44.5 113.069ZM43.5 116.069L43.8536 116.423L43.937 116.339L43.9743 116.227L43.5 116.069ZM41.5 118.069L41.7481 118.503L41.8062 118.47L41.8536 118.423L41.5 118.069ZM38 120.069L37.7519 119.635L37.5 119.779V120.069H38ZM38 125.569H37.5V125.946L37.8626 126.05L38 125.569ZM41.5 126.569L41.765 126.145L41.7052 126.108L41.6374 126.088L41.5 126.569ZM45.5 129.069L45.9472 128.845L45.8843 128.72L45.765 128.645L45.5 129.069ZM47.5 133.069L47.9956 133.003L47.9846 132.92L47.9472 132.845L47.5 133.069ZM49.5 148.069L49.9965 148.009L49.9956 148.003L49.5 148.069ZM52.5 173.069L52.0036 173.129L52.0059 173.148L52.0097 173.167L52.5 173.069ZM53.5 178.069L53.0097 178.167L53.0187 178.212L53.0358 178.255L53.5 178.069ZM55.5 183.069L55.0358 183.255L55.0523 183.296L55.076 183.334L55.5 183.069ZM58 187.069L57.576 187.334L57.6141 187.395L57.6678 187.443L58 187.069ZM62.5 191.069L62.1678 191.443L62.2027 191.474L62.2428 191.498L62.5 191.069ZM67.5 194.069L67.2428 194.498L67.2898 194.526L67.3419 194.543L67.5 194.069ZM73.5 196.069L73.3419 196.543L73.4189 196.569H73.5V196.069ZM82.5 196.069V196.569H82.5328L82.5653 196.565L82.5 196.069ZM249.5 174.069L249.565 174.565L249.613 174.559L249.658 174.543L249.5 174.069ZM255.5 172.069L255.658 172.543L255.722 172.522L255.777 172.485L255.5 172.069ZM260 169.069L260.277 169.485L260.309 169.464L260.336 169.439L260 169.069ZM265.5 164.069L265.836 164.439L265.882 164.398L265.916 164.346L265.5 164.069ZM267.5 161.069L267.916 161.346L267.945 161.303L267.964 161.255L267.5 161.069ZM269.5 156.069L269.964 156.255L269.977 156.223L269.985 156.19L269.5 156.069ZM270.5 152.069L270.985 152.19L271 152.131V152.069H270.5ZM270.5 146.069H271V146.035L270.995 146.002L270.5 146.069ZM265.5 109.069H265V109.103L265.005 109.136L265.5 109.069ZM265.5 100.069L265.084 99.7917L265 99.9177V100.069H265.5ZM267.5 97.0691L267.276 96.6218L267.158 96.6812L267.084 96.7917L267.5 97.0691ZM271.5 95.0691L271.724 95.5163L272 95.3781V95.0691H271.5ZM271.5 90.5691H272V90.26L271.724 90.1218L271.5 90.5691ZM264.5 87.0691L264.116 87.3892L264.183 87.4695L264.276 87.5163L264.5 87.0691ZM262 84.0691L261.502 84.1143L261.516 84.2695L261.616 84.3892L262 84.0691ZM261.5 78.5691L261.998 78.5238L261.997 78.5154L261.996 78.507L261.5 78.5691ZM260.5 70.5691L260.996 70.507L260.995 70.5L260.994 70.493L260.5 70.5691ZM259.5 64.0691L259.004 64.1311L259.005 64.1381L259.006 64.1451L259.5 64.0691ZM256.5 40.0691L256.996 40.007L256.99 39.9579L256.974 39.9109L256.5 40.0691ZM254.5 34.0691L254.974 33.9109L254.953 33.8474L254.916 33.7917L254.5 34.0691ZM250.5 28.0691L250.916 27.7917L250.889 27.7505L250.854 27.7155L250.5 28.0691ZM245.5 23.0691L245.854 22.7155L245.796 22.6581L245.724 22.6218L245.5 23.0691ZM239.5 20.0691L239.724 19.6218L239.664 19.5919L239.598 19.5788L239.5 20.0691ZM234.5 19.0691L234.598 18.5788L234.55 18.5691H234.5V19.0691ZM227.5 19.0691V18.5691H227.467L227.435 18.5733L227.5 19.0691ZM59.6039 47.0775L59.4799 46.5931L59.4561 46.5992L59.4331 46.6076L59.6039 47.0775ZM65.5 45.5691L65.4357 45.0732L65.4055 45.0771L65.3761 45.0847L65.5 45.5691ZM55.5 48.5691L55.3292 48.0991L55.2797 48.1171L55.235 48.1451L55.5 48.5691ZM51.5 51.0691L51.235 50.6451L51.1671 50.6875L51.1159 50.749L51.5 51.0691ZM49 54.0691L49.319 54.4541L49.3546 54.4246L49.3841 54.3892L49 54.0691ZM45.5 61.2459L45.0098 61.1474L45 61.1962V61.2459H45.5ZM45.5 74.0691H45V74.1014L45.0042 74.1335L45.5 74.0691ZM50.5 112.569L50.9972 112.622L51.0035 112.563L50.9958 112.505L50.5 112.569ZM50.182 115.541L50.635 115.753L50.6703 115.677L50.6792 115.594L50.182 115.541ZM49 118.069L49.3536 118.423L49.4157 118.36L49.4529 118.281L49 118.069ZM47 120.069L46.6464 119.716L46.5 119.862V120.069H47ZM47 123.569H46.5V123.812L46.6911 123.962L47 123.569ZM50.182 126.069L50.513 125.694L50.5022 125.685L50.4909 125.676L50.182 126.069ZM52.0664 127.733L52.5347 127.558L52.491 127.441L52.3973 127.358L52.0664 127.733ZM53.5 131.569L53.9972 131.516L53.9904 131.453L53.9684 131.394L53.5 131.569ZM55 145.569L54.5028 145.622L54.5038 145.631L54.505 145.64L55 145.569ZM59.5 177.069L59.005 177.14L59.0165 177.22L59.0528 177.293L59.5 177.069ZM61.5 181.069L61.0528 181.293L61.0729 181.333L61.1 181.369L61.5 181.069ZM64.5 185.069L64.1 185.369L64.1479 185.433L64.2133 185.479L64.5 185.069ZM69.5 188.569L69.2133 188.979L69.2729 189.02L69.3419 189.043L69.5 188.569ZM74 190.069L73.8419 190.543L73.8918 190.56L73.9441 190.566L74 190.069ZM78.4475 190.569L78.3917 191.066L78.4341 191.071L78.4767 191.068L78.4475 190.569ZM87 190.069L87.0292 190.568L87.0475 190.567L87.0657 190.565L87 190.069ZM245.5 169.069L245.566 169.565L245.589 169.562L245.612 169.556L245.5 169.069ZM252 167.569L252.112 168.056L252.194 168.037L252.265 167.993L252 167.569ZM256 165.069L256.265 165.493L256.313 165.463L256.354 165.423L256 165.069ZM260.5 160.569L260.854 160.923L260.894 160.882L260.924 160.834L260.5 160.569ZM263 156.569L263.424 156.834L263.461 156.774L263.481 156.706L263 156.569ZM264 153.069L264.481 153.206L264.491 153.169L264.496 153.131L264 153.069ZM264.5 149.069L264.996 149.131L265.003 149.08L264.998 149.028L264.5 149.069ZM264.058 143.676L264.556 143.636L264.555 143.622L264.553 143.609L264.058 143.676ZM259.347 108.976H258.847V109.01L258.851 109.043L259.347 108.976ZM259.347 100.535L258.872 100.377L258.847 100.454V100.535H259.347ZM260.5 97.0691L260.146 96.7155L260.063 96.7991L260.026 96.9112L260.5 97.0691ZM262.5 95.0691L262.854 95.4226L263.03 95.2458L262.995 94.9984L262.5 95.0691ZM262 91.5691L262.495 91.4984L262.461 91.2628L262.257 91.1403L262 91.5691ZM259.5 90.0691L259.078 90.337L259.141 90.4369L259.243 90.4978L259.5 90.0691ZM258.405 88.3431L257.973 88.5945L257.977 88.6028L257.983 88.611L258.405 88.3431ZM256.5 85.0691L256.009 85.1653L256.026 85.2478L256.068 85.3205L256.5 85.0691ZM255.578 80.3713L255.082 80.4336L255.084 80.4507L255.088 80.4676L255.578 80.3713ZM254.636 72.8685L255.132 72.8062L255.131 72.7991L255.13 72.7921L254.636 72.8685ZM253.694 66.7724L253.198 66.8341L253.199 66.8415L253.2 66.8488L253.694 66.7724ZM250.5 41.0691L250.996 41.0074L250.992 40.9773L250.985 40.9478L250.5 41.0691ZM249.5 37.0691L249.985 36.9478L249.967 36.8756L249.929 36.8118L249.5 37.0691ZM246.5 32.0691L246.929 31.8118L246.889 31.7462L246.832 31.6954L246.5 32.0691ZM242 28.0691L242.332 27.6954L242.283 27.6514L242.224 27.6218L242 28.0691ZM237 25.5691L237.224 25.1218L237.152 25.0859L237.072 25.0743L237 25.5691ZM230.139 24.5691L230.211 24.0743L230.157 24.0663L230.102 24.0705L230.139 24.5691ZM223.5 25.0691L223.462 24.5705L223.449 24.5715L223.436 24.5732L223.5 25.0691ZM53.6581 43.5434L59.6581 41.5434L59.3419 40.5947L53.3419 42.5947L53.6581 43.5434ZM48.7572 46.4978L53.7572 43.4978L53.2428 42.6403L48.2428 45.6403L48.7572 46.4978ZM44.8536 50.4226L48.8536 46.4226L48.1464 45.7155L44.1464 49.7155L44.8536 50.4226ZM42.916 53.3464L44.916 50.3464L44.084 49.7917L42.084 52.7917L42.916 53.3464ZM40.8536 57.4226C41.0119 57.2643 41.1874 56.9729 41.3486 56.6812C41.5222 56.3669 41.7174 55.9794 41.9129 55.5736C42.3045 54.761 42.7076 53.8539 42.9596 53.266L42.0404 52.8721C41.7924 53.4508 41.3955 54.3438 41.0121 55.1395C40.8201 55.5379 40.634 55.9066 40.4733 56.1976C40.3001 56.5111 40.1881 56.6738 40.1464 56.7155L40.8536 57.4226ZM39.9903 60.1671C40.0714 59.7617 40.2178 59.1276 40.3913 58.5505C40.4782 58.2615 40.5692 57.9961 40.6589 57.7844C40.7563 57.5541 40.8276 57.4485 40.8536 57.4226L40.1464 56.7155C39.9724 56.8896 39.8395 57.1548 39.738 57.3944C39.6287 57.6524 39.5259 57.9558 39.4337 58.2626C39.2489 58.8772 39.0953 59.5431 39.0097 59.971L39.9903 60.1671ZM40 72.0691V60.0691H39V72.0691H40ZM44.9963 113.009L39.9963 72.0085L39.0037 72.1296L44.0037 113.13L44.9963 113.009ZM43.9743 116.227L44.9743 113.227L44.0257 112.911L43.0257 115.911L43.9743 116.227ZM41.8536 118.423L43.8536 116.423L43.1464 115.716L41.1464 117.716L41.8536 118.423ZM38.2481 120.503L41.7481 118.503L41.2519 117.635L37.7519 119.635L38.2481 120.503ZM38.5 125.569V120.069H37.5V125.569H38.5ZM41.6374 126.088L38.1374 125.088L37.8626 126.05L41.3626 127.05L41.6374 126.088ZM45.765 128.645L41.765 126.145L41.235 126.993L45.235 129.493L45.765 128.645ZM47.9472 132.845L45.9472 128.845L45.0528 129.293L47.0528 133.293L47.9472 132.845ZM49.9956 148.003L47.9956 133.003L47.0044 133.135L49.0044 148.135L49.9956 148.003ZM52.9964 173.009L49.9964 148.009L49.0036 148.129L52.0036 173.129L52.9964 173.009ZM53.9903 177.971L52.9903 172.971L52.0097 173.167L53.0097 178.167L53.9903 177.971ZM55.9642 182.883L53.9642 177.883L53.0358 178.255L55.0358 183.255L55.9642 182.883ZM58.424 186.804L55.924 182.804L55.076 183.334L57.576 187.334L58.424 186.804ZM62.8322 190.695L58.3322 186.695L57.6678 187.443L62.1678 191.443L62.8322 190.695ZM67.7572 193.64L62.7572 190.64L62.2428 191.498L67.2428 194.498L67.7572 193.64ZM73.6581 195.595L67.6581 193.595L67.3419 194.543L73.3419 196.543L73.6581 195.595ZM82.5 195.569H73.5V196.569H82.5V195.569ZM249.435 173.573L82.4347 195.573L82.5653 196.565L249.565 174.565L249.435 173.573ZM255.342 171.595L249.342 173.595L249.658 174.543L255.658 172.543L255.342 171.595ZM259.723 168.653L255.223 171.653L255.777 172.485L260.277 169.485L259.723 168.653ZM265.164 163.699L259.664 168.699L260.336 169.439L265.836 164.439L265.164 163.699ZM267.084 160.792L265.084 163.792L265.916 164.346L267.916 161.346L267.084 160.792ZM269.036 155.883L267.036 160.883L267.964 161.255L269.964 156.255L269.036 155.883ZM270.015 151.948L269.015 155.948L269.985 156.19L270.985 152.19L270.015 151.948ZM270 146.069V152.069H271V146.069H270ZM265.005 109.136L270.005 146.136L270.995 146.002L265.995 109.002L265.005 109.136ZM265 100.069V109.069H266V100.069H265ZM267.084 96.7917L265.084 99.7917L265.916 100.346L267.916 97.3464L267.084 96.7917ZM269.276 95.6218L267.276 96.6218L267.724 97.5163L269.724 96.5163L269.276 95.6218ZM271.276 94.6218L269.276 95.6218L269.724 96.5163L271.724 95.5163L271.276 94.6218ZM271 90.5691V95.0691H272V90.5691H271ZM268.276 89.5163L271.276 91.0163L271.724 90.1218L268.724 88.6218L268.276 89.5163ZM264.276 87.5163L268.276 89.5163L268.724 88.6218L264.724 86.6218L264.276 87.5163ZM261.616 84.3892L264.116 87.3892L264.884 86.749L262.384 83.749L261.616 84.3892ZM261.002 78.6143L261.502 84.1143L262.498 84.0238L261.998 78.5238L261.002 78.6143ZM260.004 70.6311L261.004 78.6311L261.996 78.507L260.996 70.507L260.004 70.6311ZM259.006 64.1451L260.006 70.6451L260.994 70.493L259.994 63.993L259.006 64.1451ZM256.004 40.1311L259.004 64.1311L259.996 64.007L256.996 40.007L256.004 40.1311ZM254.026 34.2272L256.026 40.2272L256.974 39.9109L254.974 33.9109L254.026 34.2272ZM250.084 28.3464L254.084 34.3464L254.916 33.7917L250.916 27.7917L250.084 28.3464ZM245.146 23.4226L250.146 28.4226L250.854 27.7155L245.854 22.7155L245.146 23.4226ZM239.276 20.5163L245.276 23.5163L245.724 22.6218L239.724 19.6218L239.276 20.5163ZM234.402 19.5594L239.402 20.5594L239.598 19.5788L234.598 18.5788L234.402 19.5594ZM227.5 19.5691H234.5V18.5691H227.5V19.5691ZM59.5649 41.5648L227.565 19.5648L227.435 18.5733L59.4351 40.5733L59.5649 41.5648ZM59.7278 47.5619L65.6239 46.0535L65.3761 45.0847L59.4799 46.5931L59.7278 47.5619ZM55.6708 49.039L59.7746 47.5475L59.4331 46.6076L55.3292 48.0991L55.6708 49.039ZM51.765 51.4931L55.765 48.9931L55.235 48.1451L51.235 50.6451L51.765 51.4931ZM49.3841 54.3892L51.8841 51.3892L51.1159 50.749L48.6159 53.749L49.3841 54.3892ZM46.9472 58.2927C47.1943 57.7984 47.6288 56.9626 48.0909 56.1776C48.3222 55.7848 48.5569 55.4106 48.776 55.1005C49.0015 54.7813 49.1876 54.5629 49.319 54.4541L48.681 53.684C48.4424 53.8817 48.1937 54.1916 47.9592 54.5236C47.7182 54.8647 47.468 55.2647 47.2292 55.6703C46.7513 56.482 46.3057 57.3397 46.0528 57.8455L46.9472 58.2927ZM45.9902 61.3444C46.0631 60.9814 46.2468 60.3274 46.4466 59.693C46.6497 59.0482 46.8492 58.4886 46.9472 58.2927L46.0528 57.8455C45.913 58.1251 45.691 58.7632 45.4928 59.3926C45.2913 60.0323 45.0939 60.729 45.0098 61.1474L45.9902 61.3444ZM46 74.0691V61.2459H45V74.0691H46ZM50.9958 112.505L45.9958 74.0047L45.0042 74.1335L50.0042 112.633L50.9958 112.505ZM50.6792 115.594L50.9972 112.622L50.0028 112.516L49.6849 115.488L50.6792 115.594ZM49.4529 118.281L50.635 115.753L49.7291 115.329L48.5471 117.857L49.4529 118.281ZM47.3536 120.423L49.3536 118.423L48.6464 117.716L46.6464 119.716L47.3536 120.423ZM47.5 123.569V120.069H46.5V123.569H47.5ZM50.4909 125.676L47.3089 123.176L46.6911 123.962L49.8731 126.462L50.4909 125.676ZM52.3973 127.358L50.513 125.694L49.8511 126.444L51.7354 128.108L52.3973 127.358ZM53.9684 131.394L52.5347 127.558L51.598 127.908L53.0316 131.744L53.9684 131.394ZM55.4972 145.516L53.9972 131.516L53.0028 131.622L54.5028 145.622L55.4972 145.516ZM58.995 169.998L55.495 145.498L54.505 145.64L58.005 170.14L58.995 169.998ZM59.995 176.998L58.995 169.998L58.005 170.14L59.005 177.14L59.995 176.998ZM61.9472 180.845L59.9472 176.845L59.0528 177.293L61.0528 181.293L61.9472 180.845ZM64.9 184.769L61.9 180.769L61.1 181.369L64.1 185.369L64.9 184.769ZM69.7867 188.159L64.7867 184.659L64.2133 185.479L69.2133 188.979L69.7867 188.159ZM74.1581 189.595L69.6581 188.095L69.3419 189.043L73.8419 190.543L74.1581 189.595ZM78.5034 190.072L74.0559 189.572L73.9441 190.566L78.3917 191.066L78.5034 190.072ZM86.9708 189.57L78.4184 190.07L78.4767 191.068L87.0292 190.568L86.9708 189.57ZM245.434 168.573L86.9343 189.573L87.0657 190.565L245.566 169.565L245.434 168.573ZM251.888 167.082L245.388 168.582L245.612 169.556L252.112 168.056L251.888 167.082ZM255.735 164.645L251.735 167.145L252.265 167.993L256.265 165.493L255.735 164.645ZM260.146 160.216L255.646 164.716L256.354 165.423L260.854 160.923L260.146 160.216ZM262.576 156.304L260.076 160.304L260.924 160.834L263.424 156.834L262.576 156.304ZM263.519 152.932L262.519 156.432L263.481 156.706L264.481 153.206L263.519 152.932ZM264.004 149.007L263.504 153.007L264.496 153.131L264.996 149.131L264.004 149.007ZM263.56 143.717L264.002 149.11L264.998 149.028L264.556 143.636L263.56 143.717ZM258.851 109.043L263.562 143.744L264.553 143.609L259.842 108.909L258.851 109.043ZM258.847 100.535V108.976H259.847V100.535H258.847ZM260.026 96.9112L258.872 100.377L259.821 100.693L260.974 97.2269L260.026 96.9112ZM262.146 94.7155L260.146 96.7155L260.854 97.4226L262.854 95.4226L262.146 94.7155ZM261.505 91.6398L262.005 95.1398L262.995 94.9984L262.495 91.4984L261.505 91.6398ZM259.243 90.4978L261.743 91.9978L262.257 91.1403L259.757 89.6403L259.243 90.4978ZM257.983 88.611L259.078 90.337L259.922 89.8012L258.827 88.0752L257.983 88.611ZM256.068 85.3205L257.973 88.5945L258.837 88.0916L256.932 84.8176L256.068 85.3205ZM255.088 80.4676L256.009 85.1653L256.991 84.9728L256.069 80.275L255.088 80.4676ZM254.14 72.9308L255.082 80.4336L256.074 80.309L255.132 72.8062L254.14 72.9308ZM253.2 66.8488L254.142 72.9449L255.13 72.7921L254.188 66.6961L253.2 66.8488ZM250.004 41.1307L253.198 66.8341L254.19 66.7108L250.996 41.0074L250.004 41.1307ZM249.015 37.1903L250.015 41.1903L250.985 40.9478L249.985 36.9478L249.015 37.1903ZM246.071 32.3263L249.071 37.3263L249.929 36.8118L246.929 31.8118L246.071 32.3263ZM241.668 28.4428L246.168 32.4428L246.832 31.6954L242.332 27.6954L241.668 28.4428ZM236.776 26.0163L241.776 28.5163L242.224 27.6218L237.224 25.1218L236.776 26.0163ZM230.067 25.0638L236.928 26.0638L237.072 25.0743L230.211 24.0743L230.067 25.0638ZM223.538 25.5676L230.177 25.0676L230.102 24.0705L223.462 24.5705L223.538 25.5676ZM65.5643 46.0649L223.564 25.5649L223.436 24.5732L65.4357 45.0732L65.5643 46.0649Z" fill="#0087B6"/>
<g filter="url(#filter6_i_0_1)">
<path d="M66.4045 91.3578C66.4045 92.6055 63.8876 88.8624 62.6292 88.8624L62 100.716L67.0337 124.422L68.2921 146.257L72.0674 150H77.1011L78.9888 146.257V126.294L81.5056 123.798L94.7191 124.422L99.1236 127.541L111.708 143.761H116.742L118 137.523L117.371 135.028L114.854 130.037L109.82 123.798L105.416 118.807C103.948 117.56 100.885 115.064 100.382 115.064C99.8787 115.064 98.9139 114.232 98.4944 113.817L94.0899 113.193L88.427 112.569L106.674 89.4862V85.7431L105.416 83.8716C103.948 85.1193 100.885 87.6147 100.382 87.6147C99.8787 87.6147 99.7528 84.7034 99.7528 83.2477L98.4944 82L77.7303 109.45L72.6966 91.3578L70.809 86.367H67.6629C67.0337 86.367 66.4045 90.1101 66.4045 91.3578Z" fill="#D6EFDA"/>
</g>
<path d="M66.4045 91.3578C66.4045 92.6055 63.8876 88.8624 62.6292 88.8624L62 100.716L67.0337 124.422L68.2921 146.257L72.0674 150H77.1011L78.9888 146.257V126.294L81.5056 123.798L94.7191 124.422L99.1236 127.541L111.708 143.761H116.742L118 137.523L117.371 135.028L114.854 130.037L109.82 123.798L105.416 118.807C103.948 117.56 100.885 115.064 100.382 115.064C99.8787 115.064 98.9139 114.232 98.4944 113.817L94.0899 113.193L88.427 112.569L106.674 89.4862V85.7431L105.416 83.8716C103.948 85.1193 100.885 87.6147 100.382 87.6147C99.8787 87.6147 99.7528 84.7034 99.7528 83.2477L98.4944 82L77.7303 109.45L72.6966 91.3578L70.809 86.367H67.6629C67.0337 86.367 66.4045 90.1101 66.4045 91.3578Z" stroke="#007844" stroke-width="2"/>
<g filter="url(#filter7_i_0_1)">
<path d="M128.296 114.791L124 99.6744L125.074 98.4651L127.759 99.0698L126.148 92.4186H128.296L132.056 98.4651L133.667 94.8372L135.815 92.4186L138.5 90H147.63C148.059 90 149.957 90.8062 150.852 91.2093L153 96.6512V100.884H150.315L147.093 98.4651C145.66 98.6667 142.689 99.0698 142.259 99.0698C141.83 99.0698 140.648 101.488 140.111 102.698L138.5 109.349L139.037 117.814L140.111 121.442L145.481 138.977L136.352 142L128.296 114.791Z" fill="#D6EFDA"/>
</g>
<path d="M128.296 114.791L124 99.6744L125.074 98.4651L127.759 99.0698L126.148 92.4186H128.296L132.056 98.4651L133.667 94.8372L135.815 92.4186L138.5 90H147.63C148.059 90 149.957 90.8062 150.852 91.2093L153 96.6512V100.884H150.315L147.093 98.4651C145.66 98.6667 142.689 99.0698 142.259 99.0698C141.83 99.0698 140.648 101.488 140.111 102.698L138.5 109.349L139.037 117.814L140.111 121.442L145.481 138.977L136.352 142L128.296 114.791Z" stroke="#007844" stroke-width="2"/>
<g filter="url(#filter8_i_0_1)">
<path d="M168 67.913C169.478 66.6812 172.435 64.0696 172.435 63.4783L180.565 62L183.522 63.4783L185 66.4348L178.348 76.7826L176.13 79L170.957 77.5217L168 72.3478V67.913Z" fill="#D6EFDA"/>
</g>
<path d="M168 67.913C169.478 66.6812 172.435 64.0696 172.435 63.4783L180.565 62L183.522 63.4783L185 66.4348L178.348 76.7826L176.13 79L170.957 77.5217L168 72.3478V67.913Z" stroke="#007844" stroke-width="2"/>
<g filter="url(#filter9_i_0_1)">
<path d="M173.611 91.7671H170L170.722 120.041L171.444 129.466L174.333 133H180.111L183 130.055V102.959L181.556 90.589L177.944 90L175.056 94.1233L173.611 91.7671Z" fill="#D6EFDA"/>
</g>
<path d="M173.611 91.7671H170L170.722 120.041L171.444 129.466L174.333 133H180.111L183 130.055V102.959L181.556 90.589L177.944 90L175.056 94.1233L173.611 91.7671Z" stroke="#007844" stroke-width="2"/>
<g filter="url(#filter10_i_0_1)">
<path d="M217.15 123.639L197 87.6265L198.95 85.8554L203.5 88.8072L201.55 81.7229H204.8L208.7 85.2651L223.65 110.06L228.2 97.0723L234.7 84.6747L238.6 79.3614L241.2 77.5904L241.85 80.5422L246.4 77L249 78.1807V84.0843L238.6 100.024C238.167 102.189 237.3 106.636 237.3 107.108C237.3 107.581 234.7 113.209 233.4 115.964L228.85 123.639L225.6 126L220.4 124.819L217.15 123.639Z" fill="#D6EFDA"/>
</g>
<path d="M217.15 123.639L197 87.6265L198.95 85.8554L203.5 88.8072L201.55 81.7229H204.8L208.7 85.2651L223.65 110.06L228.2 97.0723L234.7 84.6747L238.6 79.3614L241.2 77.5904L241.85 80.5422L246.4 77L249 78.1807V84.0843L238.6 100.024C238.167 102.189 237.3 106.636 237.3 107.108C237.3 107.581 234.7 113.209 233.4 115.964L228.85 123.639L225.6 126L220.4 124.819L217.15 123.639Z" stroke="#007844" stroke-width="2"/>
<defs>
<filter id="filter0_d_0_1" x="0.5" y="28.9506" width="60" height="194.118" filterUnits="userSpaceOnUse" color-interpolation-filters="sRGB">
<feFlood flood-opacity="0" result="BackgroundImageFix"/>
<feColorMatrix in="SourceAlpha" type="matrix" values="0 0 0 0 0 0 0 0 0 0 0 0 0 0 0 0 0 0 127 0" result="hardAlpha"/>
<feOffset dy="4"/>
<feGaussianBlur stdDeviation="2"/>
<feComposite in2="hardAlpha" operator="out"/>
<feColorMatrix type="matrix" values="0 0 0 0 0 0 0 0 0 0 0 0 0 0 0 0 0 0 0.25 0"/>
<feBlend mode="normal" in2="BackgroundImageFix" result="effect1_dropShadow_0_1"/>
<feBlend mode="normal" in="SourceGraphic" in2="effect1_dropShadow_0_1" result="shape"/>
</filter>
<filter id="filter1_d_0_1" x="33.2591" y="181.549" width="276.625" height="80.1875" filterUnits="userSpaceOnUse" color-interpolation-filters="sRGB">
<feFlood flood-opacity="0" result="BackgroundImageFix"/>
<feColorMatrix in="SourceAlpha" type="matrix" values="0 0 0 0 0 0 0 0 0 0 0 0 0 0 0 0 0 0 127 0" result="hardAlpha"/>
<feOffset dy="4"/>
<feGaussianBlur stdDeviation="2"/>
<feComposite in2="hardAlpha" operator="out"/>
<feColorMatrix type="matrix" values="0 0 0 0 0 0 0 0 0 0 0 0 0 0 0 0 0 0 0.25 0"/>
<feBlend mode="normal" in2="BackgroundImageFix" result="effect1_dropShadow_0_1"/>
<feBlend mode="normal" in="SourceGraphic" in2="effect1_dropShadow_0_1" result="shape"/>
</filter>
<filter id="filter2_d_0_1" x="126.244" y="208.552" width="87.643" height="31.1847" filterUnits="userSpaceOnUse" color-interpolation-filters="sRGB">
<feFlood flood-opacity="0" result="BackgroundImageFix"/>
<feColorMatrix in="SourceAlpha" type="matrix" values="0 0 0 0 0 0 0 0 0 0 0 0 0 0 0 0 0 0 127 0" result="hardAlpha"/>
<feOffset dy="4"/>
<feGaussianBlur stdDeviation="2"/>
<feComposite in2="hardAlpha" operator="out"/>
<feColorMatrix type="matrix" values="0 0 0 0 0 0 0 0 0 0 0 0 0 0 0 0 0 0 0.25 0"/>
<feBlend mode="normal" in2="BackgroundImageFix" result="effect1_dropShadow_0_1"/>
<feBlend mode="normal" in="SourceGraphic" in2="effect1_dropShadow_0_1" result="shape"/>
</filter>
<filter id="filter3_d_0_1" x="16.5" y="35.5691" width="56.5525" height="178" filterUnits="userSpaceOnUse" color-interpolation-filters="sRGB">
<feFlood flood-opacity="0" result="BackgroundImageFix"/>
<feColorMatrix in="SourceAlpha" type="matrix" values="0 0 0 0 0 0 0 0 0 0 0 0 0 0 0 0 0 0 127 0" result="hardAlpha"/>
<feOffset dy="4"/>
<feGaussianBlur stdDeviation="2"/>
<feComposite in2="hardAlpha" operator="out"/>
<feColorMatrix type="matrix" values="0 0 0 0 0 0 0 0 0 0 0 0 0 0 0 0 0 0 0.25 0"/>
<feBlend mode="normal" in2="BackgroundImageFix" result="effect1_dropShadow_0_1"/>
<feBlend mode="normal" in="SourceGraphic" in2="effect1_dropShadow_0_1" result="shape"/>
</filter>
<filter id="filter4_d_0_1" x="249.11" y="0.500008" width="60" height="194.118" filterUnits="userSpaceOnUse" color-interpolation-filters="sRGB">
<feFlood flood-opacity="0" result="BackgroundImageFix"/>
<feColorMatrix in="SourceAlpha" type="matrix" values="0 0 0 0 0 0 0 0 0 0 0 0 0 0 0 0 0 0 127 0" result="hardAlpha"/>
<feOffset dy="4"/>
<feGaussianBlur stdDeviation="2"/>
<feComposite in2="hardAlpha" operator="out"/>
<feColorMatrix type="matrix" values="0 0 0 0 0 0 0 0 0 0 0 0 0 0 0 0 0 0 0.25 0"/>
<feBlend mode="normal" in2="BackgroundImageFix" result="effect1_dropShadow_0_1"/>
<feBlend mode="normal" in="SourceGraphic" in2="effect1_dropShadow_0_1" result="shape"/>
</filter>
<filter id="filter5_d_0_1" x="236.448" y="9.06906" width="56.5525" height="178" filterUnits="userSpaceOnUse" color-interpolation-filters="sRGB">
<feFlood flood-opacity="0" result="BackgroundImageFix"/>
<feColorMatrix in="SourceAlpha" type="matrix" values="0 0 0 0 0 0 0 0 0 0 0 0 0 0 0 0 0 0 127 0" result="hardAlpha"/>
<feOffset dy="4"/>
<feGaussianBlur stdDeviation="2"/>
<feComposite in2="hardAlpha" operator="out"/>
<feColorMatrix type="matrix" values="0 0 0 0 0 0 0 0 0 0 0 0 0 0 0 0 0 0 0.25 0"/>
<feBlend mode="normal" in2="BackgroundImageFix" result="effect1_dropShadow_0_1"/>
<feBlend mode="normal" in="SourceGraphic" in2="effect1_dropShadow_0_1" result="shape"/>
</filter>
<filter id="filter6_i_0_1" x="60.9944" y="80.4849" width="58.0307" height="74.5151" filterUnits="userSpaceOnUse" color-interpolation-filters="sRGB">
<feFlood flood-opacity="0" result="BackgroundImageFix"/>
<feBlend mode="normal" in="SourceGraphic" in2="BackgroundImageFix" result="shape"/>
<feColorMatrix in="SourceAlpha" type="matrix" values="0 0 0 0 0 0 0 0 0 0 0 0 0 0 0 0 0 0 127 0" result="hardAlpha"/>
<feOffset dy="4"/>
<feGaussianBlur stdDeviation="2"/>
<feComposite in2="hardAlpha" operator="arithmetic" k2="-1" k3="1"/>
<feColorMatrix type="matrix" values="0 0 0 0 0 0 0 0 0 0 0 0 0 0 0 0 0 0 0.25 0"/>
<feBlend mode="normal" in2="shape" result="effect1_innerShadow_0_1"/>
</filter>
<filter id="filter7_i_0_1" x="122.888" y="89" width="31.1118" height="58.2739" filterUnits="userSpaceOnUse" color-interpolation-filters="sRGB">
<feFlood flood-opacity="0" result="BackgroundImageFix"/>
<feBlend mode="normal" in="SourceGraphic" in2="BackgroundImageFix" result="shape"/>
<feColorMatrix in="SourceAlpha" type="matrix" values="0 0 0 0 0 0 0 0 0 0 0 0 0 0 0 0 0 0 127 0" result="hardAlpha"/>
<feOffset dy="4"/>
<feGaussianBlur stdDeviation="2"/>
<feComposite in2="hardAlpha" operator="arithmetic" k2="-1" k3="1"/>
<feColorMatrix type="matrix" values="0 0 0 0 0 0 0 0 0 0 0 0 0 0 0 0 0 0 0.25 0"/>
<feBlend mode="normal" in2="shape" result="effect1_innerShadow_0_1"/>
</filter>
<filter id="filter8_i_0_1" x="167" y="60.9565" width="19.149" height="23.1667" filterUnits="userSpaceOnUse" color-interpolation-filters="sRGB">
<feFlood flood-opacity="0" result="BackgroundImageFix"/>
<feBlend mode="normal" in="SourceGraphic" in2="BackgroundImageFix" result="shape"/>
<feColorMatrix in="SourceAlpha" type="matrix" values="0 0 0 0 0 0 0 0 0 0 0 0 0 0 0 0 0 0 127 0" result="hardAlpha"/>
<feOffset dy="4"/>
<feGaussianBlur stdDeviation="2"/>
<feComposite in2="hardAlpha" operator="arithmetic" k2="-1" k3="1"/>
<feColorMatrix type="matrix" values="0 0 0 0 0 0 0 0 0 0 0 0 0 0 0 0 0 0 0.25 0"/>
<feBlend mode="normal" in2="shape" result="effect1_innerShadow_0_1"/>
</filter>
<filter id="filter9_i_0_1" x="168.974" y="88.912" width="15.0259" height="49.088" filterUnits="userSpaceOnUse" color-interpolation-filters="sRGB">
<feFlood flood-opacity="0" result="BackgroundImageFix"/>
<feBlend mode="normal" in="SourceGraphic" in2="BackgroundImageFix" result="shape"/>
<feColorMatrix in="SourceAlpha" type="matrix" values="0 0 0 0 0 0 0 0 0 0 0 0 0 0 0 0 0 0 127 0" result="hardAlpha"/>
<feOffset dy="4"/>
<feGaussianBlur stdDeviation="2"/>
<feComposite in2="hardAlpha" operator="arithmetic" k2="-1" k3="1"/>
<feColorMatrix type="matrix" values="0 0 0 0 0 0 0 0 0 0 0 0 0 0 0 0 0 0 0.25 0"/>
<feBlend mode="normal" in2="shape" result="effect1_innerShadow_0_1"/>
</filter>
<filter id="filter10_i_0_1" x="195.739" y="75.8394" width="54.261" height="55.2362" filterUnits="userSpaceOnUse" color-interpolation-filters="sRGB">
<feFlood flood-opacity="0" result="BackgroundImageFix"/>
<feBlend mode="normal" in="SourceGraphic" in2="BackgroundImageFix" result="shape"/>
<feColorMatrix in="SourceAlpha" type="matrix" values="0 0 0 0 0 0 0 0 0 0 0 0 0 0 0 0 0 0 127 0" result="hardAlpha"/>
<feOffset dy="4"/>
<feGaussianBlur stdDeviation="2"/>
<feComposite in2="hardAlpha" operator="arithmetic" k2="-1" k3="1"/>
<feColorMatrix type="matrix" values="0 0 0 0 0 0 0 0 0 0 0 0 0 0 0 0 0 0 0.25 0"/>
<feBlend mode="normal" in2="shape" result="effect1_innerShadow_0_1"/>
</filter>
</defs>
</svg>
